<svg width="167" height="48" viewBox="0 0 167 48" fill="none" xmlns="http://www.w3.org/2000/svg">
<path fill-rule="evenodd" clip-rule="evenodd" d="M141.886 0.00191432C139.279 0.02198 136.157 0.282917 133.385 0.712599C131.186 1.05349 129.906 1.34441 128.511 1.82056C125.495 2.8495 123.261 4.54829 121.757 6.95579C121.301 7.6861 120.851 8.59898 120.531 9.4407C119.938 11.0043 119.567 12.5787 119.182 15.1767C118.521 19.6328 118.361 23.9893 118.694 28.4606C118.746 29.1616 118.774 29.4627 118.881 30.49C119.002 31.6569 119.226 33.2134 119.472 34.5887C119.855 36.7338 120.369 38.3856 121.129 39.9121C122.344 42.3506 124.092 44.1125 126.51 45.3371C127.905 46.0433 129.461 46.5564 131.346 46.9314C132.563 47.1734 134.531 47.4709 135.932 47.6244C136.092 47.6419 136.306 47.6658 136.409 47.6773C137.276 47.7746 138.767 47.8834 140.095 47.9461C143.952 48.1278 148.36 47.8465 152.416 47.1598C153.816 46.9227 154.552 46.7651 155.47 46.5053C158.694 45.5938 161.051 44.0837 162.704 41.8688C164.117 39.977 165.031 37.6202 165.584 34.4452C166.02 31.9464 166.28 29.6635 166.423 27.0941C166.486 25.9549 166.496 25.5627 166.496 23.9982C166.496 22.2767 166.481 21.8056 166.382 20.2087C166.24 17.9081 165.882 15.0548 165.469 12.9299C164.849 9.73439 163.788 7.33586 162.169 5.46483C161.883 5.1343 161.237 4.49852 160.915 4.22998C160.154 3.59456 159.387 3.09759 158.431 2.62054C157.23 2.02087 156.009 1.59526 154.415 1.22101C153.73 1.06003 152.313 0.8068 151.173 0.641367C148.014 0.183022 145.032 -0.0223136 141.886 0.00191432ZM148.565 15.3634C149.166 15.4122 149.554 15.4783 150.024 15.6123C150.748 15.8188 151.545 16.1986 152.167 16.6331C153.877 17.8279 155.002 19.6093 155.335 21.6484C155.429 22.223 155.429 22.229 155.429 27.0579V31.6289H153.182H150.935L150.935 26.7678C150.934 22.6885 150.93 21.8717 150.905 21.6893C150.814 21.0158 150.468 20.3933 149.948 19.9678C149.078 19.2559 147.825 19.0773 146.741 19.5108L146.636 19.5526L146.557 19.3629C146.117 18.3107 145.355 17.2098 144.551 16.4618C144.429 16.3486 144.329 16.2499 144.329 16.2425C144.329 16.2232 144.903 15.9503 145.147 15.8536C145.813 15.5901 146.614 15.4162 147.487 15.3457C147.717 15.3271 148.22 15.3354 148.565 15.3634ZM137.571 15.3734C138.739 15.4638 139.733 15.7517 140.688 16.2761C141.455 16.697 142.156 17.2695 142.72 17.9348C143.665 19.0498 144.245 20.2904 144.464 21.6686C144.555 22.2447 144.556 22.2915 144.556 27.0784L144.557 31.6289H142.31H140.064V26.7845C140.064 22.5984 140.059 21.9077 140.033 21.7031C139.894 20.6437 139.194 19.8181 138.136 19.4644C137.802 19.3527 137.496 19.3078 137.075 19.3083C136.493 19.3088 136.11 19.3925 135.639 19.6214C134.815 20.0216 134.237 20.8179 134.121 21.71C134.109 21.8064 134.101 23.7171 134.1 26.747L134.1 31.6289H131.852H129.605L129.612 26.8818C129.62 21.7143 129.611 22.0934 129.731 21.4511C130.132 19.3083 131.478 17.4311 133.406 16.3251C134.64 15.6176 136.179 15.2658 137.571 15.3734Z" fill="#F41435"/>
<path d="M150.023 15.612C149.553 15.478 149.165 15.4119 148.564 15.3631C148.219 15.3351 147.716 15.3268 147.487 15.3454C146.613 15.4159 145.812 15.5898 145.147 15.8533C144.903 15.95 144.329 16.2229 144.329 16.2422C144.329 16.2496 144.428 16.3483 144.55 16.4615C145.355 17.2095 146.116 18.3104 146.556 19.3626L146.635 19.5523L146.74 19.5105C147.824 19.077 149.077 19.2556 149.947 19.9675C150.467 20.393 150.813 21.0155 150.904 21.689C150.929 21.8714 150.934 22.6882 150.934 26.7675L150.934 31.6286H155.428V27.0573C155.428 22.2287 155.428 22.2227 155.334 21.6481C155.002 19.609 153.876 17.8276 152.166 16.6328C151.545 16.1983 150.747 15.8185 150.023 15.612Z" fill="white"/>
<path d="M140.688 16.2758C139.733 15.7514 138.738 15.4635 137.57 15.3731C136.179 15.2655 134.639 15.6174 133.405 16.3248C131.477 17.4308 130.131 19.308 129.731 21.4508C129.712 21.5525 129.696 21.6285 129.683 21.705C129.613 22.112 129.618 22.5318 129.611 26.8815L129.604 31.6286H134.099L134.1 26.7467C134.1 23.7168 134.108 21.8061 134.12 21.7097C134.236 20.8176 134.814 20.0213 135.638 19.6211C136.109 19.3922 136.493 19.3085 137.074 19.308C137.495 19.3075 137.801 19.3524 138.135 19.4641C139.193 19.8178 139.893 20.6434 140.032 21.7028C140.059 21.9074 140.063 22.5981 140.063 26.7842V31.6286H144.557L144.556 27.0781C144.555 22.2912 144.554 22.2444 144.463 21.6683C144.244 20.2901 143.664 19.0495 142.719 17.9345C142.155 17.2692 141.454 16.6967 140.688 16.2758Z" fill="white"/>
<path d="M20.7223 16.0722C20.2456 15.9356 19.8513 15.8683 19.2417 15.8188C18.8912 15.7902 18.3814 15.7818 18.1478 15.8006C17.2615 15.8723 16.4485 16.0495 15.7733 16.3179C15.5256 16.4162 14.943 16.6941 14.943 16.7137C14.943 16.7211 15.0443 16.8217 15.1679 16.937C15.9845 17.6985 16.7568 18.819 17.2035 19.8903L17.2844 20.0835L17.3903 20.0409C18.4908 19.5997 19.7622 19.7814 20.645 20.5061C21.1731 20.9394 21.5241 21.573 21.6167 22.2587C21.6417 22.4445 21.6462 23.2759 21.6468 27.4289L21.6473 32.3776H26.2075V27.7242C26.2075 24.6718 26.2075 23.5122 26.1846 22.9319C26.1704 22.5775 26.148 22.4389 26.1118 22.2171C25.7745 20.1412 24.6328 18.3278 22.8973 17.1113C22.2665 16.6691 21.457 16.2824 20.7223 16.0722Z" fill="white"/>
<path d="M11.2482 16.7479C10.279 16.214 9.27006 15.9208 8.08408 15.829C6.6722 15.7192 5.10972 16.0775 3.8576 16.7977C1.90031 17.9236 0.534733 19.8347 0.128214 22.0163C0.0066142 22.6701 0.0147548 22.2843 0.00712298 27.5448L0 32.3776H4.56176L4.56227 27.4077C4.56278 24.3232 4.57092 22.3779 4.58313 22.2797C4.70066 21.3717 5.2878 20.561 6.12322 20.1537C6.60148 19.9204 6.9907 19.8352 7.58038 19.8347C8.00878 19.8342 8.31812 19.8801 8.65748 19.9937C9.73152 20.3537 10.4418 21.1943 10.5827 22.2728C10.6097 22.481 10.6143 23.1843 10.6143 27.4457V32.3776H15.1745L15.1735 27.7451C15.173 22.8717 15.1725 22.8242 15.0794 22.2376C14.857 20.8345 14.2689 19.5716 13.3098 18.4365C12.7374 17.7592 12.0256 17.1764 11.2482 16.7479Z" fill="white"/>
<path d="M86.9617 16.0722C87.4385 15.9356 87.8328 15.8683 88.4423 15.8188C88.7928 15.7902 89.3027 15.7818 89.5362 15.8006C90.4225 15.8723 91.2355 16.0495 91.9107 16.3179C92.1585 16.4162 92.741 16.6941 92.741 16.7137C92.741 16.7211 92.6398 16.8217 92.5161 16.937C91.6995 17.6985 90.9272 18.819 90.4805 19.8903L90.3996 20.0835L90.2938 20.0409C89.1933 19.5997 87.9218 19.7814 87.0391 20.5061C86.5109 20.9394 86.1599 21.573 86.0673 22.2587C86.0424 22.4445 86.0378 23.2759 86.0373 27.4289L86.0368 32.3776H81.4765V27.7242C81.4765 24.6718 81.4765 23.5122 81.4994 22.9319C81.5137 22.5775 81.5361 22.4389 81.5722 22.2171C81.9095 20.1412 83.0512 18.3278 84.7867 17.1113C85.4176 16.6691 86.227 16.2824 86.9617 16.0722Z" fill="white"/>
<path d="M96.4358 16.7479C97.405 16.214 98.414 15.9208 99.5999 15.829C101.012 15.7192 102.574 16.0775 103.826 16.7977C105.784 17.9236 107.149 19.8347 107.556 22.0163C107.677 22.6701 107.669 22.2843 107.677 27.5448L107.684 32.3776H103.122L103.122 27.4077C103.121 24.3232 103.113 22.3779 103.101 22.2797C102.983 21.3717 102.396 20.561 101.561 20.1537C101.083 19.9204 100.693 19.8352 100.104 19.8347C99.6752 19.8342 99.3659 19.8801 99.0265 19.9937C97.9525 20.3537 97.2422 21.1943 97.1013 22.2728C97.0743 22.481 97.0698 23.1843 97.0698 27.4457V32.3776H92.5095L92.5105 27.7451C92.511 22.8717 92.5116 22.8242 92.6047 22.2376C92.827 20.8345 93.4152 19.5716 94.3742 18.4365C94.9466 17.7592 95.6584 17.1764 96.4358 16.7479Z" fill="white"/>
<path fill-rule="evenodd" clip-rule="evenodd" d="M70.9935 19.6386C68.5384 19.6386 66.5482 21.6288 66.5482 24.0839C66.5482 26.539 68.5384 28.5292 70.9935 28.5292C73.4486 28.5292 75.4389 26.539 75.4389 24.0839C75.4389 21.6288 73.4486 19.6386 70.9935 19.6386ZM62.5673 24.0839C62.5673 19.4303 66.3399 15.6577 70.9935 15.6577C75.6472 15.6577 79.4197 19.4303 79.4197 24.0839C79.4197 28.7376 75.6472 32.5101 70.9935 32.5101C66.3399 32.5101 62.5673 28.7376 62.5673 24.0839Z" fill="white"/>
<path d="M46.8072 19.9709V16.2885V16.2554H60.9725V18.0136L53.2098 28.6293H60.9725V32.378H46.8072V30.6197L54.5367 19.9709H46.8072Z" fill="white"/>
<path fill-rule="evenodd" clip-rule="evenodd" d="M36.5899 15.7905C31.7347 15.7905 27.7988 19.5779 27.7988 24.2499C27.7988 28.9219 31.7347 32.7093 36.5899 32.7093C39.8841 32.7093 42.7551 30.9658 44.2607 28.3854L40.6958 26.808C39.8603 28.1993 38.3637 29.1265 36.6562 29.1265C34.5428 29.1265 32.7522 27.7058 32.1387 25.7427H41.1737H41.2674H45.3147C45.4084 25.2478 45.381 24.7709 45.381 24.2499C45.381 19.5779 41.4451 15.7905 36.5899 15.7905ZM41.1525 22.6907C40.5198 20.7621 38.7458 19.3733 36.6562 19.3733C34.5667 19.3733 32.7926 20.7621 32.16 22.6907H41.1525Z" fill="white"/>
</svg>
