<svg width="70" height="70" viewBox="0 0 70 70" fill="none" xmlns="http://www.w3.org/2000/svg">
<path d="M53.5938 0H16.4062C7.34533 0 0 7.34533 0 16.4062V53.5938C0 62.6547 7.34533 70 16.4062 70H53.5938C62.6547 70 70 62.6547 70 53.5938V16.4062C70 7.34533 62.6547 0 53.5938 0Z" fill="#F4F2ED"/>
<path d="M9.36523 16.7139L34.8154 7.65625L60.9355 16.5736L56.7142 50.2305L34.8154 62.3438L13.2721 50.3877L9.36523 16.7139Z" fill="#E23237"/>
<path d="M60.9355 16.5739L34.8154 7.65625V62.3438L56.7142 50.2305L60.9355 16.5739Z" fill="#B52E31"/>
<path d="M34.8545 14.0479L18.9951 49.3213L24.9134 49.2015L28.1091 41.2311H42.2936L45.7663 49.2633L51.4092 49.3828L34.8545 14.0479ZM34.8936 25.3714L40.2598 36.5775H30.2145L34.9092 25.3714H34.8936Z" fill="white"/>
</svg>
