<svg width="27" height="27" viewBox="0 0 27 27" fill="none" xmlns="http://www.w3.org/2000/svg">
<path d="M1.13689 14.8074L24.7098 26.3564C24.9489 26.4725 25.215 26.5213 25.4797 26.4975C25.7444 26.4736 25.9976 26.378 26.212 26.221C26.4264 26.064 26.594 25.8514 26.6966 25.6063C26.7992 25.3611 26.833 25.0926 26.7943 24.8296L23.3488 2.03025C23.2061 1.08505 22.0301 0.508882 21.1945 0.974798L1.06708 12.2252C0.834448 12.3547 0.64176 12.5455 0.509953 12.7769C0.378146 13.0082 0.312261 13.2713 0.319457 13.5374C0.326653 13.8036 0.406654 14.0627 0.550768 14.2866C0.694883 14.5105 0.897599 14.6906 1.13689 14.8074Z" fill="#FAD58F"/>
</svg>
